HIERARCHY
ROOT Hips
{
	OFFSET -224.689499 91.882057 -431.625488
	CHANNELS 6 Xposition Yposition Zposition Zrotation Yrotation Xrotation
	JOINT LeftUpLeg
	{
		OFFSET 0.103455 1.857841 10.548523
		CHANNELS 6 Xposition Yposition Zposition Zrotation Yrotation Xrotation
		JOINT LeftLeg
		{
			OFFSET 43.500000 -0.000046 0.000000
			CHANNELS 6 Xposition Yposition Zposition Zrotation Yrotation Xrotation
			JOINT LeftFoot
			{
				OFFSET 42.372192 0.000015 0.000000
				CHANNELS 6 Xposition Yposition Zposition Zrotation Yrotation Xrotation
				JOINT LeftToe
				{
					OFFSET 17.300003 0.000000 0.000000
					CHANNELS 6 Xposition Yposition Zposition Zrotation Yrotation Xrotation
					End Site
					{
						OFFSET 0.000000 0.099998 0.000000
					}
				}
			}
		}
	}
	JOINT RightUpLeg
	{
		OFFSET 0.103455 1.857826 -10.548523
		CHANNELS 6 Xposition Yposition Zposition Zrotation Yrotation Xrotation
		JOINT RightLeg
		{
			OFFSET 43.500046 -0.000031 0.000000
			CHANNELS 6 Xposition Yposition Zposition Zrotation Yrotation Xrotation
			JOINT RightFoot
			{
				OFFSET 42.372253 0.000000 0.000000
				CHANNELS 6 Xposition Yposition Zposition Zrotation Yrotation Xrotation
				JOINT RightToe
				{
					OFFSET 17.299995 -0.000008 0.000031
					CHANNELS 6 Xposition Yposition Zposition Zrotation Yrotation Xrotation
					End Site
					{
						OFFSET 0.000000 0.099998 0.000000
					}
				}
			}
		}
	}
	JOINT Spine
	{
		OFFSET 6.901962 -2.603729 0.000000
		CHANNELS 6 Xposition Yposition Zposition Zrotation Yrotation Xrotation
		JOINT Spine1
		{
			OFFSET 12.588104 0.000008 0.000000
			CHANNELS 6 Xposition Yposition Zposition Zrotation Yrotation Xrotation
			JOINT Spine2
			{
				OFFSET 12.343201 -0.000015 0.000000
				CHANNELS 6 Xposition Yposition Zposition Zrotation Yrotation Xrotation
				JOINT Neck
				{
					OFFSET 25.832886 0.000023 0.000000
					CHANNELS 6 Xposition Yposition Zposition Zrotation Yrotation Xrotation
					JOINT Head
					{
						OFFSET 11.766602 -0.000008 0.000000
						CHANNELS 6 Xposition Yposition Zposition Zrotation Yrotation Xrotation
						End Site
						{
							OFFSET 0.000000 0.099998 0.000000
						}
					}
				}
				JOINT LeftShoulder
				{
					OFFSET 19.745911 -1.480347 6.000092
					CHANNELS 6 Xposition Yposition Zposition Zrotation Yrotation Xrotation
					JOINT LeftArm
					{
						OFFSET 11.284134 0.000015 -0.000031
						CHANNELS 6 Xposition Yposition Zposition Zrotation Yrotation Xrotation
						JOINT LeftForeArm
						{
							OFFSET 33.000046 -0.000015 0.000031
							CHANNELS 6 Xposition Yposition Zposition Zrotation Yrotation Xrotation
							JOINT LeftHand
							{
								OFFSET 25.200005 0.000031 0.000000
								CHANNELS 6 Xposition Yposition Zposition Zrotation Yrotation Xrotation
								End Site
								{
									OFFSET 0.000000 0.099998 0.000000
								}
							}
						}
					}
				}
				JOINT RightShoulder
				{
					OFFSET 19.746094 -1.480354 -6.000092
					CHANNELS 6 Xposition Yposition Zposition Zrotation Yrotation Xrotation
					JOINT RightArm
					{
						OFFSET 11.284134 0.000000 0.000000
						CHANNELS 6 Xposition Yposition Zposition Zrotation Yrotation Xrotation
						JOINT RightForeArm
						{
							OFFSET 33.000107 0.000015 0.000000
							CHANNELS 6 Xposition Yposition Zposition Zrotation Yrotation Xrotation
							JOINT RightHand
							{
								OFFSET 25.199760 0.000122 0.000427
								CHANNELS 6 Xposition Yposition Zposition Zrotation Yrotation Xrotation
								End Site
								{
									OFFSET 0.000000 0.099998 0.000000
								}
							}
						}
					}
				}
			}
		}
	}
}
MOTION
Frames: 6
Frame Time: 0.041667
-215.578522 90.301720 -430.013306 90.577905 3.418778 77.999838 0.103477 1.857833 10.548541 1.793793 -183.360212 -9.549979 43.499992 -0.000057 -0.000023 -16.031096 -2.369315 -10.812049 42.372189 0.000065 -0.000023 80.579252 7.281607 -1.099308 17.300013 -0.000031 -0.000008 21.454557 0.003093 -0.000000 0.103421 1.857811 -10.548499 -23.000017 177.596325 7.052473 43.500046 0.000011 0.000005 -25.129086 1.834488 8.168872 42.372238 0.000000 -0.000089 69.079434 -4.440183 4.642792 17.300011 -0.000017 0.000018 21.454562 -0.003104 -0.000017 6.901938 -2.603746 0.000002 8.890141 -2.543261 -0.126285 12.588077 0.000007 0.000031 7.784456 -5.072273 -0.423665 12.343193 0.000016 0.000023 7.465000 -5.074607 -0.392939 25.832890 -0.000005 0.000016 3.878357 -0.676239 1.339210 11.766630 0.000030 -0.000007 -21.105491 11.231825 -3.266996 19.745905 -1.480386 6.000089 -171.863788 -76.101858 -9.807496 11.284149 -0.000023 -0.000035 -33.825371 55.376196 8.210500 33.000072 -0.000038 0.000081 -38.592123 -16.543215 1.521961 25.200016 0.000021 -0.000001 9.233474 -3.444186 19.002648 19.746033 -1.480408 -6.000077 -157.763081 74.133364 24.209611 11.284172 0.000113 0.000027 0.938859 -63.372387 -39.137066 33.000137 0.000015 -0.000040 -53.654322 16.631243 -2.012073 25.199770 0.000116 0.000466 4.826990 0.133867 -9.412595 
-215.618179 90.254715 -429.323395 90.638352 3.210423 77.699890 0.103483 1.857873 10.548562 2.255528 -183.609910 -9.696349 43.499973 -0.000118 -0.000023 -15.583451 -2.157994 -10.920418 42.372181 0.000059 -0.000034 80.808084 7.301023 -1.317740 17.299971 -0.000021 0.000014 21.454550 0.003102 0.000001 0.103465 1.857841 -10.548519 -23.425090 178.118616 8.111353 43.500050 -0.000053 0.000044 -23.388192 1.936009 8.698517 42.372250 0.000011 -0.000030 68.649651 -4.758915 4.825443 17.300035 0.000013 0.000079 21.454560 -0.003103 -0.000018 6.901980 -2.603724 0.000039 8.901973 -2.515857 -0.175524 12.588102 -0.000038 0.000034 7.809979 -5.014144 -0.520836 12.343193 -0.000047 -0.000012 7.490556 -5.017064 -0.490469 25.832850 0.000052 0.000011 3.800912 -0.338969 1.472564 11.766638 0.000020 0.000010 -21.459355 11.032369 -3.036845 19.745905 -1.480323 6.000102 -172.663467 -76.147887 -8.990626 11.284195 -0.000023 -0.000074 -34.003629 55.586566 8.759397 33.000050 -0.000023 0.000015 -37.716854 -16.573949 1.501945 25.200010 0.000025 0.000022 9.699940 -2.767818 19.971188 19.746017 -1.480328 -6.000064 -157.494190 74.094049 24.485783 11.284115 0.000086 0.000036 0.620572 -63.252469 -38.931423 33.000114 0.000046 0.000015 -53.280113 16.636104 -1.999462 25.199808 0.000137 0.000395 4.820245 0.160805 -9.371282 
-215.684799 90.172531 -428.482605 90.744609 3.098880 77.419532 0.103473 1.857850 10.548541 2.923712 -183.946324 -9.799240 43.500008 -0.000023 -0.000021 -15.104998 -1.926935 -10.994795 42.372192 0.000027 -0.000006 81.127368 7.276458 -1.632221 17.300005 -0.000007 -0.000010 21.454555 0.003092 -0.000001 0.103443 1.857872 -10.548525 -23.685906 178.470917 10.190243 43.500034 -0.000061 0.000000 -22.358230 1.881948 9.328841 42.372276 -0.000008 -0.000061 68.517719 -5.147321 5.029063 17.299973 -0.000011 0.000010 21.454553 -0.003109 -0.000015 6.901954 -2.603703 0.000016 8.909904 -2.487589 -0.228241 12.588095 0.000007 0.000007 7.827779 -4.954078 -0.624696 12.343172 -0.000086 -0.000014 7.508415 -4.957622 -0.594688 25.832903 -0.000021 0.000000 3.830377 0.114554 1.683854 11.766628 -0.000028 -0.000009 -21.717179 10.827624 -2.693334 19.745903 -1.480404 6.000098 -172.970525 -76.219242 -8.677429 11.284153 0.000019 -0.000045 -34.081138 55.849210 9.252690 33.000027 -0.000053 0.000042 -36.765665 -16.363316 1.464951 25.200027 0.000011 0.000034 10.407466 -2.020089 20.663933 19.746048 -1.480385 -6.000088 -157.275501 74.069126 24.710265 11.284164 0.000085 -0.000010 0.530596 -62.995579 -38.958781 33.000122 -0.000015 0.000009 -53.024196 16.627004 -1.990046 25.199772 0.000122 0.000451 4.804161 0.075090 -9.356162 
-215.768295 90.019653 -427.507599 90.976754 3.041254 77.146898 0.103459 1.857834 10.548512 3.547977 -184.414821 -9.505991 43.499985 -0.000027 0.000015 -14.898313 -1.781537 -11.334910 42.372181 0.000046 0.000001 81.567827 7.453925 -1.868593 17.299999 0.000001 0.000015 21.454555 0.003088 0.000000 0.103409 1.857826 -10.548494 -23.724085 178.609215 12.951688 43.500069 -0.000038 -0.000041 -21.843795 1.689806 9.823105 42.372253 0.000000 -0.000029 68.434466 -5.357340 5.455163 17.300014 -0.000004 0.000018 21.454560 -0.003116 -0.000020 6.901974 -2.603719 0.000006 8.896315 -2.475785 -0.270017 12.588110 0.000015 -0.000026 7.802193 -4.927774 -0.706876 12.343205 0.000015 0.000000 7.482845 -4.931805 -0.677026 25.832863 0.000059 -0.000004 3.894930 0.618021 1.871944 11.766602 -0.000015 -0.000029 -21.817747 10.682443 -2.373876 19.745863 -1.480350 6.000104 -173.294002 -76.330786 -8.347651 11.284168 -0.000011 -0.000041 -34.069605 56.131499 9.316052 33.000038 -0.000034 -0.000015 -35.695317 -15.807377 1.403485 25.200008 0.000021 0.000009 10.896409 -1.216857 21.498871 19.746040 -1.480341 -6.000131 -156.867807 73.989097 25.129531 11.284115 -0.000010 0.000019 0.615536 -62.675858 -39.093004 33.000175 0.000038 0.000074 -52.875080 16.577912 -1.981634 25.199764 0.000140 0.000420 4.887301 -0.030510 -9.443009 
-215.888214 89.818703 -426.386108 91.282814 3.027247 76.989530 0.103467 1.857832 10.548554 4.175549 -184.843729 -9.374252 43.499977 -0.000095 0.000009 -14.978916 -1.744576 -11.491579 42.372208 -0.000006 -0.000017 82.234767 7.512583 -2.092540 17.299992 -0.000007 0.000000 21.454555 0.003096 0.000001 0.103485 1.857841 -10.548498 -23.450261 178.588205 15.739295 43.500061 -0.000046 0.000012 -21.674332 1.473024 10.065537 42.372238 -0.000015 -0.000016 68.016212 -5.309239 6.059370 17.300014 -0.000010 0.000010 21.454553 -0.003107 -0.000017 6.901965 -2.603761 0.000002 8.855230 -2.460410 -0.305386 12.588110 -0.000017 0.000008 7.721193 -4.895005 -0.774848 12.343184 -0.000048 -0.000023 7.401863 -4.899460 -0.745191 25.832851 0.000034 0.000005 4.069392 1.099267 2.008672 11.766602 -0.000010 0.000005 -21.897774 10.528161 -2.105992 19.745869 -1.480323 6.000102 -173.878270 -76.410658 -7.751457 11.284119 -0.000004 -0.000066 -33.846176 56.369848 10.184749 33.000053 -0.000004 0.000025 -34.559415 -15.528852 1.359348 25.199999 0.000051 0.000041 11.285072 -0.642400 21.894161 19.746044 -1.480316 -6.000064 -156.272625 73.860682 25.742088 11.284100 0.000055 0.000044 0.984937 -62.391176 -39.379688 33.000114 0.000019 0.000079 -52.755688 16.612991 -1.979910 25.199780 0.000113 0.000452 5.034734 -0.221070 -9.705768 
-216.032898 89.557991 -425.100891 91.609598 3.047301 76.761368 0.103464 1.857874 10.548522 4.898265 -185.264524 -9.569197 43.499985 -0.000034 -0.000006 -15.209843 -1.730467 -11.440879 42.372166 0.000051 -0.000012 83.105814 7.422085 -2.373018 17.299961 0.000020 -0.000002 21.454558 0.003109 0.000001 0.103455 1.857872 -10.548536 -22.885882 178.448814 18.018486 43.500034 -0.000038 -0.000069 -21.893832 1.373099 9.840972 42.372257 -0.000027 -0.000072 68.111937 -5.035142 6.378443 17.299990 -0.000003 0.000009 21.454555 -0.003109 -0.000015 6.901991 -2.603698 -0.000021 8.778969 -2.433097 -0.309901 12.588106 0.000018 0.000001 7.568306 -4.840763 -0.778793 12.343198 -0.000055 0.000009 7.248999 -4.845244 -0.749479 25.832897 -0.000007 0.000008 4.189942 1.557914 2.123638 11.766590 -0.000110 0.000005 -21.802222 10.316266 -1.823004 19.745914 -1.480336 6.000094 -173.948089 -76.330567 -7.679479 11.284161 0.000065 -0.000036 -33.330244 56.493062 12.089633 33.000038 -0.000042 0.000072 -33.597386 -15.560481 1.339970 25.200022 0.000008 0.000068 11.391278 -0.335583 21.681787 19.746082 -1.480364 -6.000116 -155.739515 73.728306 26.291157 11.284130 0.000018 0.000057 1.662624 -62.068279 -39.815983 33.000114 0.000011 0.000031 -52.691925 16.581572 -1.979209 25.199757 0.000139 0.000473 5.130771 -0.353641 -10.150522 
